<svg version="1.1" id="Layer_1" xmlns="http://www.w3.org/2000/svg" xmlns:xlink="http://www.w3.org/1999/xlink" x="0px" y="0px"
	 width="100%" viewBox="0 0 1024 1024" enable-background="new 0 0 1024 1024" xml:space="preserve">
<path fill="#ffffff" opacity="1.000000" stroke="none" 
	d="
M622.617676,674.580322 
	C622.000610,680.476257 621.987732,686.037781 620.897583,691.379456 
	C618.323975,703.990173 607.402893,712.012146 592.815674,712.215942 
	C579.154907,712.406860 565.489624,712.282898 551.826294,712.280945 
	C513.002319,712.275452 474.178375,712.267639 435.354401,712.245605 
	C427.533447,712.241150 420.112854,710.920166 413.880280,705.652405 
	C408.529541,701.130005 405.058411,695.369690 404.780792,688.471313 
	C403.306427,651.838501 388.377960,620.695923 366.296021,592.357056 
	C357.388916,580.926086 347.334961,570.439514 338.950317,558.569763 
	C318.182343,529.169312 304.963684,496.623352 300.981506,460.972382 
	C293.583405,394.739288 311.197266,336.101501 357.088440,286.818970 
	C388.522552,253.061935 427.011169,231.936966 472.192780,223.040298 
	C492.889374,218.964966 513.829895,218.175720 534.758362,220.641479 
	C613.103027,229.871902 670.034119,270.178223 705.820862,340.153503 
	C718.437683,364.823578 724.869934,391.370239 726.485962,419.193909 
	C729.593201,472.692932 715.280396,520.833557 683.482727,563.850708 
	C675.162659,575.106506 665.383789,585.176208 657.013123,596.414124 
	C639.640198,619.737793 627.053162,645.100586 622.617676,674.580322 
M395.467468,572.062500 
	C418.249664,601.207764 433.156128,633.884094 439.250061,670.430481 
	C439.895966,674.304077 441.854675,674.818176 445.039581,674.815063 
	C490.195923,674.771179 535.352356,674.753662 580.508606,674.829895 
	C584.309326,674.836304 586.103394,673.738892 586.795471,669.672729 
	C589.340759,654.720154 593.668884,640.243713 599.216614,626.111755 
	C608.762634,601.794922 623.001465,580.398865 639.590149,560.423706 
	C640.671448,559.121643 642.536499,558.017334 641.663208,555.812805 
	C641.297058,555.630920 641.015747,555.411499 640.704895,555.355347 
	C640.220032,555.267700 639.710571,555.234863 639.219421,555.275146 
	C621.654053,556.713989 607.900391,549.428345 596.541504,536.650574 
	C585.362793,524.075439 574.234375,511.455078 562.982300,498.945984 
	C557.926575,493.325531 551.624756,490.800873 543.879272,490.905823 
	C523.554077,491.181244 503.219604,491.251862 482.896149,490.935028 
	C474.325226,490.801422 467.848114,493.914337 462.369324,500.227966 
	C451.232666,513.061523 440.119873,525.925232 428.635315,538.444519 
	C417.582428,550.493225 404.036133,557.009216 387.233429,554.908203 
	C385.981628,554.751648 384.873474,554.588196 384.185150,555.827637 
	C383.461670,557.130493 384.456116,558.051086 385.144012,558.931946 
	C388.424713,563.133057 391.756012,567.294678 395.467468,572.062500 
M670.759094,406.971313 
	C673.271851,414.753143 674.633301,422.761444 675.379211,430.880829 
	C676.746216,445.760681 678.032166,460.648071 679.430603,475.524902 
	C679.778625,479.228302 680.426941,482.903503 681.016052,487.161316 
	C687.403076,477.312317 693.842529,441.579285 689.547974,409.765320 
	C683.619629,365.847534 663.312744,329.523560 630.219971,300.249359 
	C561.574585,239.525085 457.494110,241.727005 389.791138,305.897644 
	C357.472534,336.530060 339.264801,374.658997 335.594788,419.059998 
	C333.707153,441.897095 335.849640,464.636322 344.030487,487.670288 
	C347.343353,479.784882 346.818451,472.681641 347.549744,465.829681 
	C349.257935,449.824738 349.576324,433.657776 352.714172,417.820984 
	C358.109039,390.592926 371.922882,369.470642 397.692291,357.392426 
	C410.147858,351.554443 423.523773,349.858521 437.077545,349.825806 
	C486.404694,349.706818 535.732300,349.774628 585.059753,349.792236 
	C590.548584,349.794220 596.008850,349.952179 601.505920,350.502686 
	C636.730591,354.030396 659.005249,373.389282 670.759094,406.971313 
M420.112091,399.991974 
	C420.071625,404.818329 419.874115,409.650055 420.038239,414.469452 
	C420.180420,418.645020 418.785156,420.584991 414.285736,420.301453 
	C409.312317,419.988098 404.298401,420.119568 399.310150,420.290619 
	C393.209534,420.499817 389.585876,424.305573 389.349365,430.460846 
	C389.291870,431.956940 389.318390,433.457031 389.333160,434.955017 
	C389.404755,442.209320 392.658264,445.720367 399.870209,445.988098 
	C404.857697,446.173218 409.861450,446.194824 414.848755,446.022644 
	C418.766632,445.887299 420.203979,447.556366 420.041992,451.372772 
	C419.851562,455.858459 419.867371,460.364929 420.051178,464.851807 
	C420.346069,472.050690 424.361511,475.526611 432.161224,475.615326 
	C441.327026,475.719543 445.493683,472.567505 445.944489,464.918427 
	C446.179199,460.935760 446.050781,456.931305 446.073822,452.936646 
	C446.112732,446.194458 446.202667,446.115082 453.161011,446.047150 
	C457.819641,446.001648 462.499420,446.173401 467.131073,445.785736 
	C473.538147,445.249573 476.942383,440.169373 476.583740,432.328186 
	C476.226929,424.527679 472.817993,420.483582 466.197205,420.287109 
	C461.207336,420.139008 456.200806,420.035065 451.219452,420.277222 
	C447.229431,420.471161 445.843811,418.767365 445.965088,415.000671 
	C446.114960,410.344604 446.221283,405.671112 445.991333,401.022705 
	C445.663727,394.400818 442.218323,391.016174 435.695404,390.414948 
	C426.600586,389.576660 421.879120,392.229736 420.112091,399.991974 
M608.496033,394.283966 
	C607.387390,392.202423 605.893311,390.452179 604.011658,389.027710 
	C598.058899,384.521118 589.275269,385.435760 584.176392,391.098358 
	C579.131958,396.700562 579.100220,404.341675 584.097473,410.098236 
	C588.924988,415.659271 595.796387,417.045380 602.027344,413.715179 
	C608.879333,410.053040 611.293823,403.392853 608.496033,394.283966 
M634.662170,445.451202 
	C642.174500,440.300415 644.665100,433.970612 641.820801,427.257446 
	C639.091675,420.816101 632.346558,416.984314 625.748108,418.126801 
	C617.080688,419.627502 611.478638,427.986847 613.631042,436.207916 
	C615.857605,444.712646 624.391479,448.735504 634.662170,445.451202 
M571.679749,421.806000 
	C570.585388,421.061371 569.549805,420.205566 568.386902,419.590576 
	C561.985657,416.205414 554.119385,418.103058 549.790161,424.018982 
	C545.543823,429.821625 546.281860,438.030029 551.499878,443.033630 
	C557.039307,448.345490 566.101013,448.393860 571.813782,443.142090 
	C578.095581,437.367249 578.231506,430.062317 571.679749,421.806000 
M600.299316,478.179108 
	C601.328308,477.648163 602.417786,477.208221 603.376587,476.571594 
	C609.710876,472.365631 611.801270,464.156128 608.219238,457.721313 
	C604.425659,450.906494 596.492920,448.193481 589.370422,451.274933 
	C582.361023,454.307465 578.978271,461.649841 581.263184,468.871979 
	C583.650696,476.418457 590.066223,479.785583 600.299316,478.179108 
z"/>
<path fill="#ffffff" opacity="1.000000" stroke="none" 
	d="
M532.520752,870.819458 
	C497.564026,880.036011 466.879089,864.069092 452.318085,834.758057 
	C450.670929,831.442383 448.639771,830.144775 444.978546,830.319885 
	C439.495270,830.582214 433.987335,830.457275 428.493317,830.338745 
	C418.210266,830.116882 409.751282,821.701111 409.860809,811.927368 
	C409.973511,801.871887 418.172363,793.708130 428.592865,793.696960 
	C485.055573,793.636475 541.518433,793.633667 597.981079,793.698914 
	C608.433105,793.710999 616.311646,801.852417 616.301331,812.166748 
	C616.291260,822.166870 608.027039,830.250549 597.629578,830.364136 
	C592.300415,830.422302 586.959290,830.581299 581.643982,830.304016 
	C577.973450,830.112549 575.992249,831.435425 574.330139,834.749573 
	C565.488647,852.378601 551.925171,864.712158 532.520752,870.819458 
z"/>
<path fill="#ffffff" opacity="1.000000" stroke="none" 
	d="
M616.285400,753.028931 
	C614.960449,765.463379 607.770996,772.197754 595.814392,772.206848 
	C540.814514,772.248596 485.814453,772.271179 430.814819,772.148071 
	C414.691681,772.112000 405.122864,757.384277 412.334015,744.091553 
	C415.833984,737.639771 421.472046,734.640259 428.738739,734.638367 
	C467.072052,734.628235 505.405334,734.633301 543.738647,734.632629 
	C560.905273,734.632324 578.072021,734.609436 595.238586,734.636963 
	C607.792847,734.657043 614.293518,740.237549 616.285400,753.028931 
z"/>
<path fill="#ffffff" opacity="1.000000" stroke="none" 
	d="
M299.371338,310.514130 
	C301.524109,323.375458 287.363068,333.927155 274.234161,327.260010 
	C259.828522,319.944519 245.362610,312.747131 230.983322,305.380463 
	C222.398178,300.982147 219.101929,291.905457 222.769913,283.419495 
	C226.208115,275.465088 235.467712,271.355988 244.132858,274.488220 
	C254.020432,278.062317 263.001221,283.630737 272.434082,288.213440 
	C278.574493,291.196625 284.586853,294.444031 290.647552,297.590393 
	C295.742340,300.235352 298.796722,304.313660 299.371338,310.514130 
z"/>
<path fill="#ffffff" opacity="1.000000" stroke="none" 
	d="
M751.257874,327.622864 
	C741.048706,331.379242 732.088074,327.993073 728.327148,319.273926 
	C724.432007,310.243713 727.691528,301.609436 737.084045,296.762360 
	C750.687683,289.742065 764.389282,282.911865 778.019287,275.942291 
	C782.671875,273.563202 787.519531,272.861145 792.528076,274.187103 
	C798.758972,275.836670 803.672852,281.381561 804.303284,287.081604 
	C805.275635,295.871765 802.566345,301.663696 795.296326,305.387054 
	C780.778381,312.822601 766.178833,320.098694 751.257874,327.622864 
z"/>
<path fill="#ffffff" opacity="1.000000" stroke="none" 
	d="
M345.887451,191.071808 
	C343.145325,187.069260 340.591400,183.372818 338.073273,179.652145 
	C332.218384,171.001373 333.571594,160.526459 341.207245,155.254593 
	C349.452332,149.561935 359.761566,151.860809 365.899902,160.828613 
	C374.828522,173.872925 383.758636,186.916687 392.597595,200.021713 
	C398.629272,208.964493 397.199341,218.761490 389.232361,224.239594 
	C380.990448,229.906723 371.140167,227.850037 364.956818,218.981705 
	C358.581207,209.837646 352.373260,200.576706 345.887451,191.071808 
z"/>
<path fill="#ffffff" opacity="1.000000" stroke="none" 
	d="
M644.796387,183.834244 
	C650.548645,175.434616 655.930786,167.212891 661.662109,159.242203 
	C666.307373,152.781799 674.031677,150.695633 681.228149,153.431946 
	C691.063538,157.171646 694.978943,169.017380 688.971680,178.430237 
	C681.538330,190.077927 673.595947,201.400909 665.864624,212.858185 
	C664.281433,215.204300 662.701416,217.554443 661.046753,219.850021 
	C655.317322,227.798508 645.168762,229.664734 637.264587,224.256256 
	C630.039612,219.312561 628.098877,209.032684 633.127747,201.097382 
	C636.779968,195.334381 640.749268,189.772293 644.796387,183.834244 
z"/>
<path fill="#ffffff" opacity="1.000000" stroke="none" 
	d="
M528.290283,116.278831 
	C529.442505,118.682358 529.349915,120.858093 529.349792,123.023407 
	C529.348938,139.506500 529.373169,155.989624 529.346130,172.472672 
	C529.329773,182.470520 522.567078,189.370926 512.945435,189.301880 
	C503.613220,189.234924 496.683136,182.006287 496.661896,172.194199 
	C496.627258,156.210678 496.649811,140.226990 496.665161,124.243408 
	C496.673950,115.086739 500.684143,109.023254 508.044159,106.968102 
	C516.318848,104.657539 523.470581,107.831902 528.290283,116.278831 
z"/>
<path fill="#ffffff" opacity="1.000000" stroke="none" 
	d="
M202.307495,430.955322 
	C205.823700,429.095337 209.192139,428.608826 212.772720,428.633850 
	C226.759308,428.731628 240.747055,428.645569 254.734222,428.681488 
	C265.027191,428.707947 271.608887,434.323120 272.489960,443.720123 
	C273.371002,453.116974 267.927887,459.871216 257.836456,461.746582 
	C255.890503,462.108276 253.870041,462.187714 251.883423,462.192810 
	C238.562332,462.226807 225.239273,462.337585 211.920563,462.154694 
	C203.335358,462.036835 196.893875,457.291290 194.792572,450.134247 
	C192.553726,442.508759 194.873093,436.362732 202.307495,430.955322 
z"/>
<path fill="#ffffff" opacity="1.000000" stroke="none" 
	d="
M778.049500,462.224976 
	C773.564331,462.289581 769.573425,462.373322 765.673828,461.239136 
	C757.924988,458.985443 752.790588,451.249298 753.747375,443.224304 
	C754.707520,435.171234 761.442627,428.803345 769.632812,428.723541 
	C785.112305,428.572754 800.595947,428.544037 816.074707,428.726562 
	C824.535095,428.826355 830.768066,435.033661 831.933655,443.844910 
	C832.915771,451.269104 827.514771,459.123932 819.893433,461.262482 
	C817.323059,461.983765 814.690430,462.249237 811.999573,462.236420 
	C800.846924,462.183350 789.693726,462.219818 778.049500,462.224976 
z"/>
</svg>